<?xml version="1.0" standalone="no"?>
<!DOCTYPE svg PUBLIC "-//W3C//DTD SVG 20010904//EN"
 "http://www.w3.org/TR/2001/REC-SVG-20010904/DTD/svg10.dtd">
<svg version="1.0" xmlns="http://www.w3.org/2000/svg"
 width="370.000000pt" height="373.000000pt" viewBox="0 0 370.000000 373.000000"
 preserveAspectRatio="xMidYMid meet">

<g transform="translate(0.000000,373.000000) scale(0.100000,-0.100000)"
fill="#000000" stroke="none">
<path d="M3278 3723 c-16 -2 -28 -6 -28 -8 0 -17 15 -35 30 -35 16 0 50 29 50
43 0 7 -5 7 -52 0z"/>
<path d="M2844 3589 c-10 -4 -14 -9 -9 -10 6 -2 150 -3 320 -3 171 -1 317 -3
325 -6 9 -3 15 1 15 10 0 13 -42 15 -316 16 -173 0 -324 -3 -335 -7z"/>
<path d="M1585 3410 c-22 -5 -66 -15 -97 -22 -56 -12 -101 -44 -183 -129 -29
-30 -125 -218 -125 -245 0 -12 -4 -25 -9 -28 -4 -3 -19 -38 -31 -78 -19 -59
-24 -94 -23 -183 0 -103 9 -324 15 -372 4 -31 24 -11 32 32 9 46 22 52 40 17
18 -34 31 -41 108 -52 69 -10 256 5 303 24 31 13 33 13 28 -2 -5 -15 -4 -15
10 -2 9 8 34 55 56 104 46 105 63 120 86 77 8 -17 15 -45 15 -64 0 -19 7 -48
16 -65 8 -18 18 -56 21 -85 5 -50 4 -55 -27 -80 -26 -23 -41 -27 -91 -27 -44
0 -72 -6 -104 -24 -42 -22 -43 -24 -27 -39 24 -22 67 -31 90 -18 14 7 24 6 40
-5 26 -18 28 -41 5 -47 -34 -8 40 -29 79 -23 20 3 39 2 42 -3 8 -12 -50 -25
-98 -22 -23 2 -36 -1 -32 -7 12 -20 -28 -37 -88 -37 -37 0 -74 -6 -93 -17 -35
-17 -37 -16 -33 34 l1 26 -38 -19 c-22 -11 -46 -33 -57 -54 -18 -33 -18 -36
-2 -48 10 -7 15 -23 14 -37 -3 -25 -2 -25 67 -23 39 1 85 5 103 8 35 6 45 26
11 22 -12 -1 -24 3 -26 10 -9 24 113 62 157 48 15 -5 20 -15 20 -40 0 -19 4
-36 9 -40 6 -3 9 13 8 37 -2 42 -1 43 28 40 17 -2 47 -3 68 -3 20 0 37 -5 37
-10 0 -6 9 -8 20 -4 15 5 20 2 20 -10 0 -12 -6 -16 -20 -12 -11 3 -20 1 -20
-5 0 -5 -12 -9 -27 -8 -35 2 -73 -9 -73 -22 0 -6 9 -8 21 -5 27 7 69 -9 69
-26 0 -19 -44 -41 -69 -34 -12 3 -21 2 -21 -2 0 -10 -62 -31 -91 -31 -13 0
-34 7 -46 15 -12 8 -29 16 -40 18 -10 2 -31 9 -47 16 -35 14 -49 5 -21 -15 45
-32 63 -55 58 -74 -3 -12 0 -20 7 -20 6 0 32 -15 57 -32 l45 -33 129 0 c94 0
129 -3 129 -12 0 -7 -8 -17 -17 -22 -16 -9 -16 -12 -3 -22 13 -9 12 -10 -3 -5
-10 3 -26 -3 -38 -15 -39 -39 -102 -66 -141 -61 -28 3 -39 0 -44 -11 -4 -13
-11 -14 -32 -6 -15 6 -28 6 -31 1 -3 -5 -15 -8 -25 -6 -11 1 -37 -3 -59 -11
-35 -12 -43 -12 -66 3 -31 20 -131 120 -131 132 0 5 -7 15 -15 24 -12 11 -13
21 -5 41 11 29 -8 70 -33 70 -6 1 -11 6 -9 13 1 7 -10 17 -25 23 -30 11 -66
50 -88 94 -8 16 -15 24 -15 17 0 -8 -5 -10 -12 -6 -10 6 -10 4 -2 -7 6 -8 14
-32 17 -55 4 -22 13 -53 21 -70 8 -16 26 -58 41 -94 15 -36 31 -69 35 -75 4
-5 11 -26 15 -45 5 -21 22 -49 45 -70 80 -74 131 -114 162 -128 73 -31 239
-82 268 -82 18 0 29 -4 25 -10 -3 -5 -1 -10 4 -10 8 0 7 -7 -1 -19 -7 -11 -15
-18 -19 -16 -12 8 -37 -29 -33 -50 1 -10 -1 -24 -6 -30 -7 -8 -1 -19 16 -34
19 -16 25 -30 21 -47 -5 -26 22 -50 39 -36 5 4 2 -1 -5 -10 -7 -10 -24 -18
-36 -18 -17 0 -24 -7 -29 -32 -12 -60 43 -72 135 -30 26 12 49 28 53 37 7 18
45 20 50 2 25 -85 37 -105 71 -111 19 -4 35 -9 35 -12 0 -19 -61 -122 -102
-173 -50 -63 -82 -77 -93 -42 -3 11 -32 34 -63 52 -86 47 -142 96 -136 117 5
13 4 14 -4 3 -8 -11 -18 -5 -51 29 -22 23 -39 45 -38 50 1 5 -41 50 -93 102
-109 106 -193 211 -209 260 -6 18 -12 61 -15 96 -2 35 -6 66 -9 69 -8 8 -73
-26 -95 -50 -31 -33 -52 -101 -52 -167 l0 -58 -65 -63 c-36 -35 -78 -68 -93
-75 -15 -6 -58 -26 -96 -43 -38 -18 -83 -35 -100 -38 -39 -7 -65 -20 -92 -45
-24 -21 -229 -102 -313 -123 -66 -17 -89 -26 -209 -82 -51 -24 -97 -43 -101
-43 -5 0 -20 -9 -35 -21 l-26 -20 0 -290 0 -289 1805 0 1805 0 0 115 c0 113 0
116 -41 202 -23 49 -57 126 -76 173 -59 146 -90 193 -181 283 l-87 84 -155 36
c-85 20 -177 39 -205 43 -66 8 -342 88 -423 122 l-64 28 -46 109 c-37 89 -56
120 -98 163 -29 28 -60 52 -70 52 -15 0 -16 10 -12 89 5 86 7 91 50 152 57 80
79 125 109 217 21 67 25 72 51 72 22 0 29 5 33 28 17 85 29 120 53 150 63 78
78 142 47 202 -17 33 -37 40 -83 27 -19 -5 -36 -6 -39 -4 -2 3 3 29 11 58 8
30 18 96 20 147 3 51 9 98 13 105 11 18 3 107 -21 212 -1 6 -7 20 -14 32 -7
12 -12 31 -12 43 0 11 -7 23 -15 26 -8 4 -12 10 -10 15 3 4 -3 17 -14 28 -10
10 -22 37 -25 60 -3 23 -9 59 -12 81 -3 22 -11 46 -18 53 -7 7 -11 18 -8 26 3
8 0 11 -6 7 -6 -3 -13 -2 -17 4 -10 17 -25 11 -18 -7 3 -10 -7 -1 -23 19 -30
39 -143 120 -204 146 -42 18 -380 27 -445 12z m-28 -337 c-6 -10 159 -8 273 2
76 7 89 5 119 -13 35 -21 67 -60 57 -69 -3 -3 3 -18 13 -32 17 -23 17 -29 5
-45 -11 -16 -11 -23 4 -50 9 -17 23 -36 31 -42 20 -16 -5 -28 -89 -45 -73 -14
-160 -51 -186 -80 -11 -12 -30 -19 -53 -19 -34 0 -38 3 -51 42 -14 40 -18 43
-70 55 -30 7 -77 12 -105 11 -27 -1 -62 4 -77 10 -32 13 -62 5 -111 -32 -57
-41 -61 -41 -36 5 13 24 28 50 33 58 6 7 9 27 7 43 -1 17 1 28 6 25 5 -3 15
10 22 29 7 18 17 34 22 34 5 0 9 7 9 15 0 8 5 15 10 15 6 0 9 5 8 11 -2 6 20
24 48 39 44 24 63 31 107 39 5 0 6 -2 4 -6z m-49 -409 c9 -2 6 -13 -10 -39
-22 -34 -63 -54 -113 -55 -28 -1 -67 -21 -105 -53 -36 -31 -33 -48 4 -28 13 8
29 11 34 7 6 -3 13 -2 17 4 3 5 25 8 48 6 23 -3 58 -5 77 -6 l35 -1 -50 -24
c-27 -13 -59 -22 -70 -19 -16 4 -17 3 -5 -5 27 -19 141 -13 178 9 22 13 32 26
28 35 -3 9 0 15 9 15 7 0 17 9 20 20 3 11 11 20 17 20 7 0 6 5 -1 14 -9 11 -9
15 1 19 10 4 10 7 -1 15 -11 8 -9 14 8 31 28 28 49 27 61 -5 13 -32 13 -99 0
-69 -7 18 -9 18 -20 -10 -6 -16 -15 -50 -18 -74 -9 -56 -37 -77 -122 -91 -82
-13 -231 -13 -264 0 -15 5 -32 24 -40 44 -17 40 -15 158 3 164 6 2 11 12 11
22 0 43 182 81 268 54z m617 4 c14 -6 25 -15 25 -20 0 -5 6 -6 13 -2 6 4 -3
-7 -22 -24 -30 -29 -39 -32 -96 -32 -49 0 -66 4 -80 20 -14 15 -15 20 -4 20
11 0 11 2 -1 10 -12 8 -12 10 5 10 11 0 31 7 45 15 31 17 80 19 115 3z m-943
-30 c-5 -7 -12 -22 -15 -33 -3 -13 -5 -9 -6 13 -1 23 3 32 15 32 12 0 14 -3 6
-12z m1188 -82 c0 -54 -25 -140 -47 -157 -15 -13 -15 -11 1 19 9 18 19 68 23
112 6 82 23 101 23 26z m-316 -61 c4 -10 -1 -15 -15 -15 -17 0 -18 2 -7 15 16
18 15 18 22 0z m146 -21 c0 -2 -15 -4 -32 -4 -23 0 -29 3 -19 9 12 8 51 4 51
-5z m-1063 -16 c-3 -8 -6 -5 -6 6 -1 11 2 17 5 13 3 -3 4 -12 1 -19z m1005
-21 c54 1 77 -2 75 -10 -1 -7 8 -11 21 -10 17 2 22 -2 20 -15 -5 -28 -18 -32
-108 -32 -124 0 -159 8 -166 36 -9 36 3 46 44 37 20 -4 72 -7 114 -6z m125
-102 c6 -2 10 -10 9 -17 -7 -31 -20 -49 -32 -44 -9 3 -14 -2 -14 -14 0 -11 -5
-20 -12 -20 -6 0 -19 -7 -28 -15 -15 -13 -20 -13 -48 0 -17 9 -37 29 -44 45
-7 17 -21 30 -30 30 -19 0 -59 30 -53 39 3 7 232 3 252 -4z"/>
<path d="M1049 2313 c-9 -10 -14 -39 -13 -78 0 -53 5 -68 27 -94 15 -18 32
-50 38 -71 7 -22 18 -40 26 -40 15 0 17 16 3 25 -5 3 -10 17 -10 31 0 14 -7
38 -15 54 -9 18 -11 31 -5 35 5 3 7 25 4 49 -5 30 -2 47 9 57 12 12 12 18 2
32 -16 22 -49 22 -66 0z"/>
<path d="M1462 2200 c-21 -11 -28 -20 -20 -23 10 -4 9 -6 -2 -7 -19 -1 -51
-29 -68 -58 -11 -19 -10 -22 8 -22 10 0 28 10 40 22 11 12 20 18 20 14 0 -14
47 48 54 72 4 12 6 21 4 21 -2 -1 -18 -9 -36 -19z"/>
<path d="M1135 2158 c-4 -15 -3 -40 3 -55 l9 -28 7 31 c4 16 3 41 -3 55 l-9
24 -7 -27z"/>
<path d="M1277 2143 c-4 -3 -2 -12 4 -19 8 -10 5 -11 -21 -1 -25 10 -32 9 -40
-3 -15 -24 15 -45 65 -46 43 0 45 1 45 28 0 23 -4 28 -26 28 -14 0 -23 4 -19
10 7 11 2 13 -8 3z"/>
<path d="M1126 1961 c-12 -5 -16 -10 -9 -14 13 -8 43 2 43 14 0 10 -8 10 -34
0z"/>
<path d="M1170 1966 c0 -2 7 -7 16 -10 8 -3 12 -2 9 4 -6 10 -25 14 -25 6z"/>
<path d="M1750 1263 c0 -10 34 -32 49 -33 10 0 11 3 2 14 -12 14 -51 29 -51
19z"/>
</g>
</svg>
